<svg xmlns="http://www.w3.org/2000/svg" width="32pt" height="32pt" version="1.1" viewBox="0 0 752 752" fill="#ffff">
 <g>
  <path d="m376 174.73c-53.379 0-104.57 21.203-142.32 58.949-37.746 37.746-58.949 88.941-58.949 142.32 0 53.383 21.203 104.58 58.949 142.32 37.746 37.746 88.941 58.953 142.32 58.953 53.383 0 104.58-21.207 142.32-58.953 37.746-37.742 58.953-88.938 58.953-142.32-0.0625-53.359-21.289-104.52-59.02-142.25-37.734-37.73-88.891-58.957-142.25-59.02zm0 378.86c-47.098 0-92.27-18.711-125.57-52.016-33.305-33.305-52.016-78.477-52.016-125.58 0-47.098 18.711-92.27 52.016-125.57 33.305-33.305 78.477-52.016 125.57-52.016 47.102 0 92.273 18.711 125.58 52.016 33.305 33.305 52.016 78.477 52.016 125.57-0.050781 47.086-18.777 92.23-52.07 125.52-33.293 33.293-78.438 52.02-125.52 52.07z"/>
  <path d="m376 236.25c-22.5 0.027344-44.07 8.9766-59.98 24.887-15.91 15.91-24.859 37.48-24.883 59.98 0 6.5391 5.3008 11.84 11.84 11.84 6.5391 0 11.84-5.3008 11.84-11.84 0-21.859 11.66-42.059 30.59-52.988 18.934-10.93 42.258-10.93 61.188 0 18.934 10.93 30.594 31.129 30.594 52.988 0 24.531-17.145 42.34-35.281 61.234-18.137 18.895-37.887 39.262-37.887 67.344 0 6.5391 5.3008 11.84 11.84 11.84s11.84-5.3008 11.84-11.84c0-18.562 14.207-33.531 31.113-50.91 19.652-20.41 41.91-43.57 41.91-77.621h0.003906c-0.015624-22.484-8.9375-44.047-24.82-59.961-15.879-15.918-37.422-24.891-59.906-24.953z"/>
  <path d="m391.25 488.62c0 8.4219-6.8281 15.25-15.25 15.25s-15.246-6.8281-15.246-15.25c0-8.4219 6.8242-15.246 15.246-15.246s15.25 6.8242 15.25 15.246"/>
 </g>
</svg>